<svg viewBox="0 0 375 375" xmlns="http://www.w3.org/2000/svg">
  <!-- Background circle for better contrast -->
  <circle cx="187.5" cy="187.5" r="187.5" fill="#22c55f"/>
  
  <!-- Logo scaled down and centered with padding -->
  <g transform="translate(93.75, 93.75) scale(0.5, 0.5)" fill="white">
    <path d="M35.32 25.422h124.578c7.457 0 13.5 6.043 13.5 13.5v158.894c0 7.457-6.043 13.5-13.5 13.5H35.32c-7.457 0-13.5-6.043-13.5-13.5V38.922c0-7.457 6.043-13.5 13.5-13.5ZM35.32 242.773h124.578a13.503 13.503 0 0 1 13.5 13.5v82.387c0 7.453-6.043 13.5-13.5 13.5H35.32a13.503 13.503 0 0 1-13.5-13.5v-82.387c0-7.453 6.043-13.5 13.5-13.5ZM218.844 25.422h124.574a13.5 13.5 0 0 1 13.5 13.5v82.348c0 7.457-6.043 13.5-13.5 13.5H218.844a13.5 13.5 0 0 1-13.5-13.5V38.922c0-7.457 6.043-13.5 13.5-13.5ZM218.844 163.672h124.574a13.51 13.51 0 0 1 9.547 3.957 13.497 13.497 0 0 1 3.953 9.543v158.926c0 7.457-6.043 13.5-13.5 13.5H218.844a13.5 13.5 0 0 1-13.5-13.5V177.172c0-7.453 6.043-13.5 13.5-13.5Z"/>
  </g>
</svg>